<svg xmlns="http://www.w3.org/2000/svg" viewBox="0 0 311 208" enable-background="new 0 0 311 208"><path d="m296.4 184.7c-10.3 6.9-11.4-6.7-11.4-6.7s0-45.8 0-68.8c0-23-23.5-26.7-40.4-27.3-16.9-.6-27.6 8.2-27.6 8.2v-4.1h-26v-38h-2.4c-11.7 35-35.6 43.5-35.6 43.5l-.1 1.9c-7.9-6.4-18.7-10.9-33.8-11.4-33 .9-53.1 25.3-55.7 62.9 0 0-.3 8.6 1.7 15.5 0 0-9.5 15.5-20.4 22.4 0 0-14.9 10.3-6.3-21.8 8.6-32.1 33.6-119.4 33.6-119.4l-59.7 9.8.3 6.3 9.2-1.1c0 0 20.1-4.3 15.5 14.9-4.5 19.1-30.1 106.3-30.1 106.3s-6.9 24.1 11.2 25c18.1.9 33.6-12.3 49.4-33 0 0 13.2 33.3 48.5 33.3 31.2 0 49.7-20.4 55.7-49.6 0 11.4 0 21.2 0 25.8 0 14.6 10.7 22.4 20.5 22.4 9.8 0 19.6-6.6 19.6-6.6 8.3 7.7 18 6.9 18 6.9 18.7 0 36.1-18.7 36.1-18.7.6 20.9 13.2 18.4 13.2 18.4 14.1-.6 26.5-18.5 26.5-18.5v-7l-9.5 8.5m-173.5 9.8c-28.4 0-35.3-41.3-36.4-61.1-.6-45.1 28.7-43.6 28.7-43.6 29.3-1.1 36.2 44.5 36.2 60.3-.1 38.1-16.2 44.1-28.5 44.4m32.2-98.5h16.9c0 0 0 14 0 31.3-3-9.7-6.5-22.3-16.9-31.3m86.9 91.3c-18.1 2.6-18.7-18.4-18.7-18.4-2-23 42.2-37.9 42.2-37.9l.9 43.9c-16.4 13.6-24.4 12.4-24.4 12.4m24.1-63.7l-38.8 16.1c-20.7 9.8-23.9 25-24.8 32.7-.9 7.7 3 15.2 3 15.2-13.2.9-14.5-15.9-14.5-15.9v-78.7h22.9c-7.7 8-12.4 29 3.1 29.3 15.5.3 11.2-22.7 11.2-22.7 3.7-12.1 17.2-10.2 17.2-10.2 26.4.8 20.7 34.2 20.7 34.2" fill="#fff"/><circle cx="61.2" cy="21.5" r="16.5" fill="#43c7f4"/></svg>