<svg xmlns="http://www.w3.org/2000/svg" viewBox="0 0 465.4 120.1" enable-background="new 0 0 465.4 120.1"><path d="m44.9 33c-1.7-1.8-1.1-3.2 1.3-3.2l15.5.1c2.5 0 3.1 1.4 1.3 3.2l-6.4 7.3c-1.7 1.7-3.3 1.7-5-.1l-6.7-7.3" fill="#6c6c6c"/><path d="m51 111.4c-2.1-2.1-1.3-3.8 1.6-3.8h18.5c2.9 0 3.7 1.7 1.6 3.8l-8.2 7.2c-2.1 2.1-3.4 2.1-5.5 0l-8-7.2" fill="#2b3087"/><g fill="#ffe500"><path d="m38 0c6.5 0 11.9 5.3 11.9 11.9 0 6.5-5.3 11.8-11.9 11.9-6.5 0-11.8-5.3-11.9-11.9.1-6.6 5.4-11.9 11.9-11.9"/><path d="m3.2 97.4c-2.1 2.1-1.4 3.9 1.6 4.1h21.3v-25l-22.9 20.9"/></g><path d="m26.1 104.8c0 2.9 1.7 3.7 3.8 1.6l5.1-4.9h-8.9v3.3" fill="#3c7b31"/><path d="M11.5,34.8C9.6,32.9,8,33.6,8,36.2v44.9c0,2.7,1.5,3.3,3.4,1.4l14.6-13.8l0-21.8L11.5,34.8z" fill="#64abdd"/><path d="m53 51.8l-23.1-20.9c-2.1-2.1-3.9-1.3-3.9 1.6v14.3l8.5 7c1.9 1.9 1.9 4.9 0 6.8l-8.5 8v7.8l27-24.6" fill="#3c7b31"/><path d="m34.5 53.9l-8.5-7v21.8l8.5-8c1.9-1.9 1.9-4.9 0-6.8" fill="#00973a"/><path d="m66.3 63.8l-13.3-12-26.9 24.7v25h8.9l31.3-30.2c2.1-2.1 2.1-5.5 0-7.5" fill="#79b729"/><path d="m66.4 77.5h13.5v-45c-.1-2.9-1.9-3.6-4-1.6l-22.9 20.9 13.3 12c2.1 2.1 2.1 5.5 0 7.5l-31.3 30.2h40c2.8.1 4.8-1.8 4.9-4.5l-14.9-16.2c-1.8-1.9-1.1-3.3 1.4-3.3" fill="#ffe500"/><path d="m113.6 77.5h-33.7v19c0 .2 0 .3 0 .5l6.6 7.3c1.8 1.8 4.7 1.8 6.5 0l22-23.5c1.7-1.9 1.1-3.3-1.4-3.3" fill="#a0ceeb"/><path d="m79.9 77.5h-13.5c-2.5 0-3.2 1.5-1.4 3.3l14.8 16.2c0-.2 0-.3 0-.5l.1-19" fill="#79b729"/><g fill="#fff"><path d="m116.8 65.6v-15.7l-5 11h-4.4l-5-11v15.7h-8.2v-29.8h8.9l6.4 14 6.5-14h8.9v29.8h-8.1"/><path d="m142.8 65.9c-2.1 0-4.1-.4-5.8-1.3-1.8-.9-3.2-2-4.5-3.4-1.2-1.4-2.2-3-2.9-4.9-.7-1.8-1-3.7-1-5.6 0-2 .4-3.8 1.1-5.7.7-1.8 1.7-3.4 3-4.8 1.3-1.4 2.8-2.5 4.6-3.3 1.7-.8 3.7-1.2 5.8-1.2 2.1 0 4.1.4 5.8 1.3 1.7.9 3.2 2 4.5 3.4 1.2 1.4 2.2 3.1 2.9 4.9.7 1.8 1 3.7 1 5.6 0 2-.4 3.8-1.1 5.6-.7 1.8-1.7 3.4-3 4.8-1.3 1.4-2.8 2.5-4.5 3.3-1.9.9-3.8 1.3-5.9 1.3m-5.9-15.1c0 1 .1 2 .4 2.9.2.9.6 1.8 1.1 2.5.5.7 1.1 1.3 1.9 1.8.8.4 1.6.7 2.6.7 1 0 1.9-.2 2.7-.7s1.4-1.1 1.8-1.8c.5-.7.8-1.6 1.1-2.5.2-1 .4-1.9.4-2.9 0-1-.1-2-.4-2.9-.3-.9-.6-1.8-1.1-2.5-.5-.7-1.1-1.3-1.9-1.7s-1.6-.7-2.6-.7c-1 0-1.9.2-2.7.7-.7.4-1.4 1-1.8 1.8-.5.7-.9 1.6-1.1 2.5-.3.8-.4 1.8-.4 2.8"/><path d="M168.9,51v14.7h-8.2V35.8h6.4L179,51V35.8h8.2v29.8h-6.5L168.9,51z"/><path d="m192.3 65.6v-29.8h8.2v29.8h-8.2"/><path d="M228.9,43h-8.6v22.7h-8.2V43h-8.6v-7.1h25.4V43z"/><path d="m243.9 65.9c-2.1 0-4.1-.4-5.8-1.3-1.8-.9-3.2-2-4.5-3.4-1.2-1.4-2.2-3-2.9-4.9-.7-1.8-1-3.7-1-5.6 0-2 .4-3.8 1.1-5.7.7-1.8 1.7-3.4 3-4.8 1.3-1.4 2.8-2.5 4.6-3.3 1.8-.8 3.7-1.2 5.8-1.2 2.1 0 4.1.4 5.8 1.3 1.7.9 3.2 2 4.5 3.4 1.2 1.4 2.2 3.1 2.9 4.9.7 1.8 1 3.7 1 5.6 0 2-.4 3.8-1.1 5.6-.7 1.8-1.7 3.4-3 4.8s-2.8 2.5-4.5 3.3c-1.9.9-3.8 1.3-5.9 1.3m-5.9-15.1c0 1 .1 2 .4 2.9.2.9.6 1.8 1.1 2.5.5.7 1.1 1.3 1.9 1.8.8.4 1.6.7 2.6.7 1 0 1.9-.2 2.7-.7.8-.5 1.4-1.1 1.8-1.8.5-.7.8-1.6 1.1-2.5.2-1 .4-1.9.4-2.9 0-1-.1-2-.4-2.9-.3-.9-.6-1.8-1.1-2.5-.5-.7-1.1-1.3-1.9-1.7-.8-.4-1.6-.7-2.6-.7-1 0-1.9.2-2.7.7-.7.4-1.4 1-1.8 1.8-.5.7-.9 1.6-1.1 2.5-.3.8-.4 1.8-.4 2.8"/><path d="m261.8 65.6v-29.8h13.7c1.5 0 2.8.3 4 .9 1.2.6 2.3 1.4 3.2 2.4s1.6 2.1 2.1 3.3c.5 1.2.8 2.5.8 3.8 0 1.7-.4 3.4-1.1 4.9-.8 1.5-1.8 2.7-3.2 3.7l6.7 11h-9.2l-5.7-9.2h-3.1v9.2h-8.2zm8.2-16.3h5.2c.5 0 1-.3 1.4-.8.4-.6.7-1.3.7-2.4 0-1-.3-1.8-.8-2.4-.5-.5-1-.8-1.5-.8h-5v6.4"/><path d="m287.7 65.6l11.1-29.8h6.6l11.1 29.8h-8.7l-1.8-5.8h-7.9l-1.8 5.8h-8.6m14.5-21.3l-2.8 10h5.4l-2.6-10"/><path d="M341.4,65.6V49.9l-5,11H332l-5-11v15.7h-8.2V35.8h8.9l6.4,14l6.5-14h8.9v29.8H341.4z"/><path d="m375.9 58.5v7.1h-21.3v-29.8h20.9v7.2h-12.7v4.2h10.8v6.6h-10.8v4.7h13.1"/><path d="M387.9,51v14.7h-8.2V35.8h6.4l12,15.2V35.8h8.2v29.8h-6.5L387.9,51z"/><path d="M434.6,43h-8.6v22.7h-8.2V43h-8.6v-7.1h25.4V43z"/><path d="m449.7 65.9c-2.1 0-4.1-.4-5.8-1.3-1.8-.9-3.2-2-4.5-3.4-1.2-1.4-2.2-3-2.9-4.9-.7-1.8-1-3.7-1-5.6 0-2 .4-3.8 1.1-5.7.7-1.8 1.7-3.4 3-4.8 1.3-1.4 2.8-2.5 4.6-3.3 1.8-.8 3.7-1.2 5.8-1.2 2.1 0 4.1.4 5.8 1.3 1.7.9 3.2 2 4.5 3.4 1.2 1.4 2.2 3.1 2.9 4.9.7 1.8 1 3.7 1 5.6 0 2-.4 3.8-1.1 5.6-.7 1.8-1.7 3.4-3 4.8s-2.8 2.5-4.5 3.3c-1.9.9-3.8 1.3-5.9 1.3m-5.9-15.1c0 1 .1 2 .4 2.9.2.9.6 1.8 1.1 2.5.5.7 1.1 1.3 1.9 1.8.8.4 1.6.7 2.6.7 1 0 1.9-.2 2.7-.7.8-.5 1.4-1.1 1.8-1.8.5-.7.8-1.6 1.1-2.5.2-1 .4-1.9.4-2.9 0-1-.1-2-.4-2.9-.3-.9-.6-1.8-1.1-2.5-.5-.7-1.1-1.3-1.9-1.7-.8-.4-1.6-.7-2.6-.7-1 0-1.9.2-2.7.7-.7.4-1.4 1-1.8 1.8-.5.7-.9 1.6-1.1 2.5-.3.8-.4 1.8-.4 2.8"/></g></svg>