<svg xmlns="http://www.w3.org/2000/svg" viewBox="0 0 375.1 120.1" enable-background="new 0 0 375.1 120.1"><g fill="#fff"><path d="M123.9,77.8h1.9v13.5h6.6V93h-8.5V77.8z"/><path d="M135.2,77.8h1.9V93h-1.9V77.8z"/><path d="M144.1,79.4h-4.6v-1.6h11.1v1.6h-4.6V93h-1.9V79.4z"/><path d="m158.3 93.2c-1 0-1.8-.2-2.6-.6-.8-.4-1.5-.9-2-1.6-.6-.7-1-1.5-1.3-2.5-.3-1-.5-2.1-.5-3.3 0-1.2.2-2.3.5-3.3.3-1 .8-1.8 1.3-2.5.6-.7 1.2-1.2 2-1.5.8-.4 1.7-.5 2.6-.5 1 0 1.8.2 2.6.5.8.4 1.5.9 2.1 1.5.6.7 1 1.5 1.3 2.4.3 1 .5 2 .5 3.2 0 1.2-.2 2.3-.5 3.3-.3 1-.8 1.8-1.3 2.5-.6.7-1.3 1.2-2.1 1.6-.7.7-1.6.8-2.6.8m0-1.6c.7 0 1.3-.1 1.8-.4.5-.3 1-.7 1.4-1.3.4-.5.7-1.2.9-2 .2-.8.3-1.6.3-2.6 0-.9-.1-1.8-.3-2.5-.2-.8-.5-1.4-.9-1.9-.4-.5-.9-.9-1.4-1.2-.5-.3-1.2-.4-1.8-.4-.7 0-1.3.1-1.8.4-.5.3-1 .7-1.4 1.2-.4.5-.7 1.2-.9 1.9-.2.8-.3 1.6-.3 2.5 0 1 .1 1.8.3 2.6.2.8.5 1.4.9 2 .4.5.9 1 1.4 1.3.5.2 1.2.4 1.8.4"/><path d="m176.3 93l-3.6-6.4h-2.7v6.4h-2v-15.2h4.7c.8 0 1.5.1 2.1.2.7.1 1.2.4 1.7.7.5.3.8.8 1.1 1.3.3.5.4 1.2.4 2 0 1.2-.3 2.1-.9 2.8-.6.7-1.4 1.2-2.5 1.5l3.8 6.6h-2.1zm-6.4-8h2.5c1.2 0 2.1-.2 2.7-.7.6-.5.9-1.2.9-2.2 0-1-.3-1.7-.9-2.1-.6-.4-1.5-.6-2.7-.6h-2.5v5.6"/><path d="m188 88.3h-5.5l-1.5 4.7h-2l5.1-15.1h2.2l5.1 15.1h-2.1l-1.3-4.7m-.5-1.5l-.7-2.3c-.3-.8-.5-1.7-.8-2.5-.2-.8-.5-1.7-.7-2.6h-.1c-.2.9-.5 1.7-.7 2.6-.2.8-.5 1.7-.8 2.5l-.7 2.3h4.5"/><path d="M193.6,77.8h1.9v13.5h6.6V93h-8.5V77.8z"/><path d="m209.6 89.7c.5.6 1.2 1 1.9 1.4.7.3 1.5.5 2.3.5 1 0 1.8-.2 2.3-.7.6-.5.8-1 .8-1.8 0-.4-.1-.7-.2-1-.1-.3-.3-.5-.5-.7-.2-.2-.5-.4-.8-.5-.3-.2-.6-.3-1-.5l-2.2-.9c-.4-.2-.7-.3-1.1-.6-.4-.2-.7-.5-1-.8-.3-.3-.5-.7-.7-1.1-.2-.4-.3-.9-.3-1.5 0-.6.1-1.1.4-1.6.2-.5.6-.9 1-1.3.4-.4.9-.6 1.5-.8.6-.2 1.2-.3 1.9-.3.9 0 1.7.2 2.5.5.8.3 1.4.8 2 1.4l-1 1.2c-.5-.4-1-.8-1.5-1.1-.6-.3-1.2-.4-1.9-.4-.8 0-1.5.2-2 .6-.5.4-.8.9-.8 1.6 0 .4.1.7.2.9.1.3.3.5.6.7.2.2.5.4.8.5.3.1.6.3.9.4l2.1.9c.4.2.8.4 1.2.6.4.2.7.5 1 .8.3.3.5.7.7 1.1.2.4.2.9.2 1.5 0 .6-.1 1.2-.4 1.7-.2.5-.6 1-1 1.4-.5.4-1 .7-1.6.9-.6.2-1.3.3-2.1.3-1.1 0-2-.2-3-.6-.9-.4-1.7-.9-2.4-1.6l1.2-1.1"/><path d="m221.4 77.8h1.9v8.9c0 .9.1 1.7.3 2.3.2.6.4 1.1.8 1.5.3.4.7.6 1.1.8.4.2.9.2 1.4.2.5 0 1-.1 1.4-.2.4-.2.8-.4 1.1-.8.3-.4.6-.9.8-1.5.2-.6.3-1.4.3-2.3v-8.9h1.8v8.9c0 1.2-.1 2.2-.4 3.1-.3.8-.7 1.5-1.1 2-.5.5-1.1.9-1.7 1.1-.7.2-1.4.3-2.1.3-.8 0-1.5-.1-2.2-.3-.7-.2-1.2-.6-1.7-1.1-.5-.5-.9-1.2-1.1-2-.3-.8-.4-1.9-.4-3.1v-8.9z"/><path d="m236.1 89.7c.5.6 1.2 1 1.9 1.4.7.3 1.5.5 2.3.5 1 0 1.8-.2 2.3-.7.6-.5.8-1 .8-1.8 0-.4-.1-.7-.2-1-.1-.3-.3-.5-.5-.7-.2-.2-.5-.4-.8-.5-.3-.2-.6-.3-1-.5l-2.2-.9c-.4-.2-.7-.3-1.1-.6-.4-.2-.7-.5-1-.8-.3-.3-.5-.7-.7-1.1-.2-.4-.3-.9-.3-1.5 0-.6.1-1.1.4-1.6.2-.5.6-.9 1-1.3.4-.4.9-.6 1.5-.8.6-.2 1.2-.3 1.9-.3.9 0 1.7.2 2.5.5.8.3 1.4.8 2 1.4l-1 1.2c-.5-.4-1-.8-1.5-1.1-.6-.3-1.2-.4-1.9-.4-.8 0-1.5.2-2 .6-.5.4-.8.9-.8 1.6 0 .4.1.7.2.9.1.3.3.5.6.7.2.2.5.4.8.5.3.1.6.3.9.4l2.2.9c.4.2.8.4 1.2.6.4.2.7.5 1 .8.3.3.5.7.7 1.1.2.4.2.9.2 1.5 0 .6-.1 1.2-.4 1.7-.2.5-.6 1-1 1.4-.4.4-1 .7-1.6.9-.6.2-1.3.3-2.1.3-1.1 0-2-.2-3-.6-.9-.4-1.7-.9-2.4-1.6l1.1-1.1"/><path d="M250.9,79.4h-4.6v-1.6h11.1v1.6h-4.6V93h-1.9V79.4z"/><path d="M260.2,77.8h8.7v1.6h-6.8v4.8h5.7v1.6h-5.7v5.5h7V93h-9V77.8z"/><path d="m272.3 77.8h2l5.5 9.5 1.6 3.1h.1c0-.8-.1-1.6-.1-2.4-.1-.8-.1-1.6-.1-2.4v-7.8h1.8v15.2h-2l-5.5-9.5-1.6-3.1h-.1c.1.8.1 1.6.2 2.3.1.8.1 1.6.1 2.4v7.9h-1.8v-15.2z"/><path d="M290.1,79.4h-4.6v-1.6h11.1v1.6H292V93h-1.9V79.4z"/><path d="m305.2 88.3h-5.5l-1.5 4.6h-2l5.1-15.1h2.2l5.1 15.1h-2.1l-1.3-4.6m-.5-1.5l-.7-2.3c-.3-.8-.5-1.7-.8-2.5-.2-.8-.5-1.7-.7-2.6h-.1c-.2.9-.5 1.7-.7 2.6-.2.8-.5 1.7-.8 2.5l-.7 2.3h4.5m-1.8-10.1h-1.6l2-2.6h2.2l-2.6 2.6"/><path d="m308.4 77.8h2.1l2.4 8.2c.3.9.5 1.7.7 2.5.2.8.5 1.6.8 2.5h.1c.3-.9.5-1.7.7-2.5.2-.8.5-1.6.7-2.5l2.4-8.2h2l-4.9 15.2h-2.2l-4.8-15.2"/><path d="M322.3,77.8h8.7v1.6h-6.8v4.8h5.8v1.6h-5.8v5.5h7V93h-9V77.8z"/><path d="M334.5,77.8h1.9v13.5h6.6V93h-8.5V77.8z"/><path d="m117.5 44.3c-.6-1.9-1.5-3.4-2.7-4.7-1.2-1.3-2.6-2.3-4.2-3-1.6-.7-3.4-1-5.4-1-1.9 0-3.8.3-5.4 1-1.6.7-3.1 1.7-4.2 2.9-1.2 1.3-2.1 2.9-2.7 4.7-.6 1.8-.9 3.9-.9 6.2 0 2.3.3 4.4.9 6.3.6 1.9 1.5 3.5 2.7 4.8 1.2 1.3 2.6 2.3 4.2 3.1 1.6.7 3.4 1.1 5.4 1.1 2 0 3.8-.4 5.4-1.1 1.6-.7 3.1-1.7 4.2-3.1 1.2-1.3 2.1-2.9 2.7-4.8.6-1.8.9-4 .9-6.3.1-2.2-.2-4.3-.9-6.1m-12.3 14.2c-1.5 0-2.7-.6-3.6-2-1-1.4-1.5-3.4-1.5-6 0-2.5.5-4.5 1.5-5.8.9-1.3 2.1-1.9 3.6-1.9 1.6 0 2.7.6 3.7 1.9 1 1.4 1.5 3.3 1.5 5.8 0 2.6-.5 4.6-1.5 6-1 1.3-2.2 2-3.7 2"/><path d="m142.5 51.3c-.7-.7-1.6-1.3-2.6-1.7 0 0 .1 0 .1-.1.7-.5 1.3-1.1 1.7-1.7.4-.6.8-1.3 1-2 .2-.7.3-1.4.3-2.2 0-1.5-.3-2.8-.9-3.8-.6-1-1.5-1.9-2.5-2.5-1-.6-2.2-1-3.6-1.3-1.3-.2-2.7-.3-4.2-.3h-10.5v29.9h11.3c1.6 0 3.1-.2 4.5-.5 1.4-.4 2.7-.9 3.8-1.6 1.1-.8 2-1.7 2.6-2.9.6-1.2 1-2.6 1-4.1-.3-2.3-.9-4-2-5.2m-13.2-4.3v-4.5h2c1.6 0 2.4.3 2.8.5.3.2.6.5.6 1.5 0 .8-.2 1.3-.7 1.8-.5.4-1.4.7-2.7.7h-2m6.8 8.9c0 1.3-.5 2.8-4.2 2.8h-2.6v-5.4h2.6c1.5 0 2.7.2 3.4.7.4.3.8.7.8 1.9"/><path d="m165.7 51c-1.1-1.3-2.5-2.3-4.4-3.1l-3.5-1.4c-.6-.3-1.1-.5-1.7-.7-.5-.2-.9-.4-1.2-.6-.3-.2-.5-.4-.6-.5-.1-.1-.1-.3-.1-.5 0-.5.2-.8.5-1.1.5-.3 1.1-.5 2-.5 1 0 1.9.2 2.6.5.8.3 1.7.8 2.5 1.5l.7.6 4.3-5.3-.6-.6c-1.3-1.3-2.8-2.2-4.4-2.9-3.2-1.2-6.6-1.3-9.4-.3-1.3.5-2.4 1.1-3.4 1.9-1 .8-1.7 1.8-2.3 2.9-.5 1.1-.8 2.3-.8 3.6 0 1.1.2 2.2.5 3.1.4.9.8 1.7 1.4 2.4.6.7 1.2 1.3 2 1.8.7.5 1.5.9 2.2 1.2l5.2 2.2c.4.2.8.4 1.1.6.2.2.4.3.5.5.1.2.1.4.1.6 0 .5-.2.9-.6 1.2-.5.3-1.3.5-2.3.5-1 0-2.1-.2-3.1-.7-1.1-.5-2.1-1.1-3-1.9l-.7-.6-4.7 5.7.7.6c1.5 1.4 3.2 2.5 5.1 3.2 1.9.7 3.8 1.1 5.7 1.1 1.7 0 3.3-.3 4.7-.8 1.4-.5 2.6-1.2 3.6-2 1-.9 1.8-1.9 2.3-3 .5-1.1.8-2.4.8-3.7 0-2.4-.6-4.1-1.7-5.5"/><path d="m177.4 58.3v-4.5h9.5v-7.2h-9.5v-3.6h11.2v-7.3h-19.4v29.9h19.8v-7.3z"/><path d="m209.6 53.8c1.2-.7 2.3-1.7 3.1-2.8 1-1.5 1.5-3.4 1.5-5.6 0-1.8-.3-3.3-1-4.6-.6-1.3-1.5-2.3-2.6-3-1.1-.7-2.3-1.3-3.7-1.6-1.4-.3-2.8-.4-4.4-.4h-11v29.8h8.2v-10.1h1.9l5.3 10.1h9.3l-6.6-11.8m-3.5-8.5c0 1.1-.3 1.8-.9 2.3-.7.6-1.8.8-3.2.8h-2.3v-5.9h2.3c1.5 0 2.6.2 3.3.7.2.2.8.6.8 2.1"/><path d="m232.7 35.6l-3.5 13.8c-.4 1.5-.8 3-1.1 4.5-.1.4-.2.8-.3 1.1-.1-.4-.2-.8-.3-1.1-.3-1.4-.7-3-1.1-4.5l-3.5-13.8h-8.7l9 29.9h9l9-29.9h-8.5"/><path d="m254.4 35.7h-9l-9.4 29.9h8.5l1.7-6.7h7l1.7 6.7h8.8l-9.3-29.9m-4.9 10.6l.2-1c.1.3.2.6.2 1 .4 1.6.8 3.1 1.2 4.5l.3 1.4h-3.4l.4-1.3c.4-1.5.8-3 1.1-4.6"/><path d="m309.5 44.2c-.6-1.9-1.6-3.4-2.7-4.7-1.2-1.3-2.6-2.3-4.2-3-1-.4-2-.7-3.1-.8l5.7-6h-9.3l-3.6 6.2h1.8c-.8.2-1.6.4-2.3.7-1.6.7-3.1 1.7-4.2 3-1.2 1.3-2.1 2.9-2.7 4.7-.6 1.8-.9 3.9-.9 6.3 0 2.3.3 4.4.9 6.3.6 1.9 1.6 3.5 2.7 4.8 1.2 1.3 2.6 2.4 4.2 3.1 1.6.7 3.5 1.1 5.4 1.1 2 0 3.8-.4 5.4-1.1 1.6-.7 3.1-1.7 4.2-3.1 1.2-1.3 2.1-2.9 2.7-4.8.6-1.8.9-4 .9-6.3 0-2.4-.3-4.5-.9-6.4m-12.4-1.5c1.6 0 2.8.6 3.7 1.9 1 1.4 1.5 3.3 1.5 5.8 0 2.6-.5 4.6-1.5 6-.9 1.3-2.1 2-3.6 2-1.5 0-2.7-.6-3.6-2-1-1.4-1.5-3.5-1.5-6 0-2.5.5-4.5 1.5-5.8.7-1.3 1.9-1.9 3.5-1.9"/><path d="m330.6 53.9c1.2-.7 2.3-1.7 3.1-2.9 1-1.5 1.5-3.4 1.5-5.6 0-1.8-.3-3.4-1-4.6-.6-1.3-1.5-2.3-2.6-3-1.1-.7-2.3-1.3-3.8-1.6-1.4-.3-2.8-.5-4.4-.5h-11.1v30h8.3v-10.1h1.9l5.4 10.1h9.3l-6.6-11.8m-3.5-8.5c0 1.1-.3 1.8-.9 2.4-.7.6-1.8.8-3.2.8h-2.3v-5.9h2.3c1.5 0 2.6.2 3.3.7.1 0 .8.4.8 2"/><path d="m338.6 35.7h8.3v30h-8.3z"/><path d="m374.1 44.4c-.6-1.8-1.5-3.4-2.7-4.7-1.2-1.3-2.6-2.3-4.2-3-1.6-.7-3.4-1-5.4-1-1.9 0-3.7.3-5.4 1-1.6.7-3 1.7-4.2 2.9-1.2 1.3-2.1 2.8-2.7 4.7-.6 1.8-.9 3.9-.9 6.2 0 2.3.3 4.4.9 6.2.6 1.9 1.5 3.5 2.7 4.8 1.2 1.3 2.6 2.3 4.2 3 1.6.7 3.4 1.1 5.4 1.1 1.9 0 3.8-.4 5.4-1.1 1.6-.7 3-1.7 4.2-3 1.2-1.3 2.1-2.9 2.7-4.8.6-1.8.9-3.9.9-6.2.1-2.2-.3-4.3-.9-6.1m-7.2 6.2c0 2.5-.5 4.5-1.5 6-.9 1.3-2.1 2-3.6 2-1.5 0-2.7-.6-3.6-2-1-1.4-1.5-3.4-1.5-6 0-2.5.5-4.5 1.4-5.8.9-1.3 2.1-1.9 3.6-1.9 1.5 0 2.7.6 3.6 1.9 1.1 1.3 1.6 3.3 1.6 5.8"/><path d="m259.8 35.7v7.3h7.7v22.6h8.3v-22.6h7.7v-7.3z"/><path d="m105.1 66.6c-2 0-3.8-.4-5.4-1.1-1.6-.7-3.1-1.7-4.2-3.1-1.2-1.3-2.1-2.9-2.7-4.8-.6-1.9-1-4.1-1-6.5 0-2.4.3-4.6 1-6.4.6-1.9 1.6-3.5 2.7-4.7 1.2-1.3 2.6-2.3 4.2-2.9 1.6-.7 3.5-1 5.4-1 2 0 3.8.3 5.4 1 1.6.7 3.1 1.7 4.2 3 1.2 1.3 2.1 2.9 2.7 4.8.6 1.9 1 4 1 6.4 0 2.4-.3 4.6-1 6.5-.6 1.9-1.6 3.5-2.7 4.8-1.2 1.3-2.6 2.3-4.2 3.1-1.6.5-3.4.9-5.4.9m0-5.7c2 0 3.6-.9 4.8-2.6 1.2-1.7 1.8-4.1 1.8-7.1 0-3-.6-5.3-1.8-6.9-1.2-1.7-2.8-2.5-4.8-2.5-2 0-3.6.8-4.8 2.5-1.2 1.7-1.8 4-1.8 6.9 0 3 .6 5.3 1.8 7.1 1.2 1.7 2.8 2.6 4.8 2.6"/></g><path d="m44.9 33c-1.7-1.8-1.1-3.2 1.3-3.2l15.5.1c2.5 0 3.1 1.4 1.3 3.2l-6.4 7.3c-1.7 1.7-3.3 1.7-5-.1l-6.7-7.3" fill="#6c6c6c"/><path d="m51 111.4c-2.1-2.1-1.3-3.8 1.6-3.8h18.5c2.9 0 3.7 1.7 1.6 3.8l-8.2 7.2c-2.1 2.1-3.4 2.1-5.5 0l-8-7.2" fill="#2b3087"/><g fill="#ffe500"><path d="m38 0c6.5 0 11.9 5.3 11.9 11.9 0 6.5-5.3 11.8-11.9 11.9-6.5 0-11.8-5.3-11.9-11.9.1-6.6 5.4-11.9 11.9-11.9"/><path d="m3.2 97.4c-2.1 2.1-1.4 3.9 1.6 4.1h21.3v-25l-22.9 20.9"/></g><path d="m26.1 104.8c0 2.9 1.7 3.7 3.8 1.6l5.1-4.9h-8.9v3.3" fill="#3c7b31"/><path d="M11.5,34.8C9.6,32.9,8,33.6,8,36.2v44.9c0,2.7,1.5,3.3,3.4,1.4l14.6-13.8l0-21.8L11.5,34.8z" fill="#64abdd"/><path d="m53 51.8l-23.1-20.9c-2.1-2.1-3.9-1.3-3.9 1.6v14.3l8.5 7c1.9 1.9 1.9 4.9 0 6.8l-8.5 8v7.8l27-24.6" fill="#3c7b31"/><path d="m34.5 53.9l-8.5-7v21.8l8.5-8c1.9-1.9 1.9-4.9 0-6.8" fill="#00973a"/><path d="m66.3 63.8l-13.3-12-26.9 24.7v25h8.9l31.3-30.2c2.1-2.1 2.1-5.5 0-7.5" fill="#79b729"/><path d="m66.4 77.5h13.5v-45c-.1-2.9-1.9-3.6-4-1.6l-22.9 20.9 13.3 12c2.1 2.1 2.1 5.5 0 7.5l-31.3 30.2h40c2.8.1 4.8-1.8 4.9-4.5l-14.9-16.2c-1.8-1.9-1.1-3.3 1.4-3.3" fill="#ffe500"/><path d="m113.6 77.5h-33.7v19c0 .2 0 .3 0 .5l6.6 7.3c1.8 1.8 4.7 1.8 6.5 0l22-23.5c1.7-1.9 1.1-3.3-1.4-3.3" fill="#a0ceeb"/><path d="m79.9 77.5h-13.5c-2.5 0-3.2 1.5-1.4 3.3l14.8 16.2c0-.2 0-.3 0-.5l.1-19" fill="#79b729"/></svg>